<svg width="51" height="51" viewBox="0 0 51 51" fill="none" xmlns="http://www.w3.org/2000/svg">
    <path d="M31.375 20.8c-1.012-3.398-4.5-5.875-8.225-5.875a8.225 8.225 0 0 0-8.224 8.225c0 4.143 3.064 7.655 7.05 8.225" stroke="#224189" stroke-width="3" stroke-linecap="round"/>
    <path d="M44.18 20.8C43.052 10.306 33.864 2 23.15 2 11.703 2 2 11.477 2 22.976 2 34.697 11.879 42.8 20.97 48.428a4.43 4.43 0 0 0 4.357 0c.598-.366 1.2-.743 1.801-1.132" stroke="#224189" stroke-width="3" stroke-linecap="round"/>
    <path d="M38.426 25.5C44.148 25.5 49 30.239 49 35.988c0 5.84-4.93 9.94-9.485 12.726a2.214 2.214 0 0 1-2.178 0c-4.546-2.814-9.485-6.865-9.485-12.726 0-5.75 4.851-10.488 10.574-10.488z" stroke="#224189" stroke-width="3"/>
    <path d="M38.426 36.075h.02" stroke="#224189" stroke-width="3" stroke-linecap="round" stroke-linejoin="round"/>
</svg>
