<svg width="43" height="54" viewBox="0 0 43 54" fill="none" xmlns="http://www.w3.org/2000/svg">
    <path d="M.817 53.054a1.498 1.498 0 0 0 1.587-.2l3.56-2.968 4.288 3.461.01.008a1.49 1.49 0 0 0 1.85-.004l.01-.009 4.24-3.459 4.239 3.46.01.008a1.491 1.491 0 0 0 1.85.004l.01-.008 4.288-3.461 3.56 2.969a1.51 1.51 0 0 0 1.594.2 1.39 1.39 0 0 0 .824-1.256v-5.808l2.424 2.03c.265.221.6.342.945.341.212 0 .422-.048.613-.141a1.36 1.36 0 0 0 .79-1.256v-5.807l2.455 2.03a1.536 1.536 0 0 0 1.605.2 1.39 1.39 0 0 0 .822-1.256V3.978C42.391 1.805 40.474 0 38.124 0H13.935c-2.35 0-4.28 1.805-4.28 3.978v.905H9.1c-2.35 0-4.218 1.755-4.218 3.928v.844h-.615C1.918 9.655 0 11.472 0 13.645v38.154a1.384 1.384 0 0 0 .817 1.255zM11.43 3.978c0-1.194 1.134-2.202 2.505-2.202h24.189c1.371 0 2.492 1.008 2.492 2.202v37.418l-3.107-2.55V8.81c0-2.173-1.868-3.928-4.22-3.928H11.43v-.905zM6.658 8.81c0-1.194 1.072-2.153 2.443-2.153H33.29c1.371 0 2.443.96 2.443 2.153v37.42l-2.996-2.552V13.645c0-2.173-1.93-3.99-4.28-3.99H6.657V8.81zm-4.882 4.834c0-1.194 1.12-2.215 2.492-2.215h24.188c1.372 0 2.505 1.021 2.505 2.215v37.419l-3.24-2.695c-.003-.003-.011-.006-.015-.01a1.491 1.491 0 0 0-1.863-.013l-.011.008-4.29 3.463-4.241-3.46-.011-.008a1.49 1.49 0 0 0-1.856 0l-.01.008-4.24 3.46-4.29-3.463-.01-.008a1.488 1.488 0 0 0-1.862.014l-.013.009-3.233 2.695v-37.42z" fill="#224189"/>
    <path d="M9.387 43.28h13.95a.888.888 0 1 0 0-1.776H9.388a.888.888 0 1 0 0 1.775zm6.975-9.907a3.108 3.108 0 0 1-3.103-3.104.888.888 0 1 0-1.776 0 4.887 4.887 0 0 0 3.72 4.74v1.612a.888.888 0 1 0 1.776 0v-1.513a4.878 4.878 0 0 0-.617-9.718 3.103 3.103 0 0 1-.29-6.193l.02.001a.899.899 0 0 0 .136-.01 3.107 3.107 0 0 1 3.237 3.1.888.888 0 0 0 1.776 0 4.885 4.885 0 0 0-4.262-4.84V16.09a.888.888 0 1 0-1.776 0v1.457a4.88 4.88 0 0 0 1.16 9.618 3.103 3.103 0 0 1 0 6.207z" fill="#224189"/>
</svg>