<svg width="38" height="54" viewBox="0 0 38 54" fill="none" xmlns="http://www.w3.org/2000/svg">
    <path d="M33.91 23.057H13.676a.417.417 0 0 0-.417.418v7.085c0 .23.186.417.417.417H33.91c.23 0 .417-.187.417-.417v-7.085a.417.417 0 0 0-.417-.418zm-.418 7.085H14.094v-6.25h19.398v6.25z" fill="#224189"/>
    <path d="M21.594.634a.413.413 0 0 0-.432.029l-3.257 2.285L14.648.655a.42.42 0 0 0-.481 0l-3.258 2.293L7.635.655a.418.418 0 0 0-.48 0L3.9 2.948.659.655A.418.418 0 0 0 0 .995v11.579c-.001 1.05.405 2.024 1.136 2.736a3.847 3.847 0 0 0 2.745 1.144h9.983v.485h-1.052a2.83 2.83 0 0 0-2.821 2.83v31.41A2.825 2.825 0 0 0 12.812 54h21.954a2.825 2.825 0 0 0 2.821-2.821v-31.41a2.83 2.83 0 0 0-2.821-2.83h-1.653v-6.636a3.706 3.706 0 0 0-3.706-3.698H21.82v-5.6a.417.417 0 0 0-.225-.37zM.834 12.574V1.802L3.659 3.8a.416.416 0 0 0 .48.001l3.258-2.294L10.67 3.8a.418.418 0 0 0 .48 0l3.257-2.294L17.664 3.8a.418.418 0 0 0 .48 0l2.84-1.993v4.798H10.819c-.111 0-.223 0-.335.01-1.993.165-3.555 1.94-3.555 4.038v1.92a3.05 3.05 0 0 1-3.046 3.047 3.014 3.014 0 0 1-2.155-.9 2.967 2.967 0 0 1-.892-2.146zm5.45 3.046a3.91 3.91 0 0 0 .333-.297l.027-.03a3.9 3.9 0 0 0 .416-.504c.018-.025.037-.048.054-.073a3.868 3.868 0 0 0 .361-.69c.083-.204.15-.415.197-.634.008-.034.012-.07.019-.104.043-.233.072-.47.072-.714v-1.92c0-1.67 1.225-3.078 2.788-3.208a2.59 2.59 0 0 1 .251-.006c.046 0 .094.002.142.004a3.779 3.779 0 0 1 .325.03c.043 0 .11.014.16.024.437.088.834.267 1.204.55.115.076.217.17.338.29a2.9 2.9 0 0 1 .838 1.612c.038.157.056.327.056.537v5.133H6.284zm28.482 2.153c1.095 0 1.986.895 1.986 1.996v31.41a1.989 1.989 0 0 1-1.986 1.986H12.813a1.989 1.989 0 0 1-1.987-1.986v-31.41c0-1.1.891-1.996 1.987-1.996h1.052v2.747h-.634a.417.417 0 1 0 0 .835H33.91a.417.417 0 1 0 0-.835h-.797v-2.747h1.653zm-2.487-7.47V20.52h-17.58V10.487c0-.277-.024-.509-.072-.703a3.686 3.686 0 0 0-1.068-2.037c-.09-.09-.188-.179-.29-.262-.018-.014-.033-.032-.05-.045H29.406a2.87 2.87 0 0 1 2.872 2.863z" fill="#224189"/>
    <path d="M26.21 17.866h-8.048a.417.417 0 1 0 0 .835h8.049a.417.417 0 1 0 0-.835zm2.568-2.876H18.162a.417.417 0 1 0 0 .835h10.616a.417.417 0 1 0 0-.835zm-8.052-2.458c0 .23.187.417.418.417h7.634a.417.417 0 1 0 0-.834h-7.634a.417.417 0 0 0-.418.417zm9.464 15.75c-.276 0-.5-.19-.5-.424h-.835c0 .556.387 1.023.918 1.19v.327h.835v-.327c.53-.167.917-.634.917-1.19 0-.693-.599-1.258-1.335-1.258-.276 0-.5-.19-.5-.424 0-.234.224-.424.5-.424s.5.19.5.424h.835c0-.556-.386-1.023-.917-1.19v-.327h-.835v.328c-.531.166-.918.633-.918 1.189 0 .694.6 1.258 1.335 1.258.276 0 .5.19.5.424 0 .234-.224.424-.5.424zM16.935 46.975h-2.928a.417.417 0 0 0-.417.417v2.928c0 .231.187.418.417.418h2.928c.23 0 .418-.187.418-.418v-2.928a.417.417 0 0 0-.418-.417zm-.417 2.928h-2.093V47.81h2.093v2.093zm5.963-2.928h-2.928a.417.417 0 0 0-.418.417v2.928c0 .231.187.418.418.418h2.928c.23 0 .417-.187.417-.418v-2.928a.417.417 0 0 0-.417-.417zm-.418 2.928H19.97V47.81h2.093v2.093zm5.963-2.928h-2.928a.417.417 0 0 0-.417.417v2.928c0 .231.187.418.417.418h2.928c.231 0 .418-.187.418-.418v-2.928a.417.417 0 0 0-.418-.417zm-.417 2.928h-2.093V47.81h2.093v2.093zm5.963-2.928h-2.928a.417.417 0 0 0-.417.417v2.928c0 .231.187.418.417.418h2.928c.231 0 .418-.187.418-.418v-2.928a.417.417 0 0 0-.418-.417zm-.417 2.928h-2.093V47.81h2.093v2.093zm-16.22-7.85h-2.928a.417.417 0 0 0-.417.418v2.928c0 .23.187.417.417.417h2.928c.23 0 .418-.187.418-.417V42.47a.417.417 0 0 0-.418-.418zm-.417 2.928h-2.093v-2.093h2.093v2.093zm5.963-2.928h-2.928a.417.417 0 0 0-.418.418v2.928c0 .23.187.417.418.417h2.928c.23 0 .417-.187.417-.417V42.47a.417.417 0 0 0-.417-.418zm-.418 2.928H19.97v-2.093h2.093v2.093zm5.963-2.928h-2.928a.417.417 0 0 0-.417.418v2.928c0 .23.187.417.417.417h2.928c.231 0 .418-.187.418-.417V42.47a.417.417 0 0 0-.418-.418zm-.417 2.928h-2.093v-2.093h2.093v2.093zm5.963-2.928h-2.928a.417.417 0 0 0-.417.418v2.928c0 .23.187.417.417.417h2.928c.231 0 .418-.187.418-.417V42.47a.417.417 0 0 0-.418-.418zm-.417 2.928h-2.093v-2.093h2.093v2.093zm-16.22-7.849h-2.928a.417.417 0 0 0-.417.418v2.928c0 .23.187.417.417.417h2.928c.23 0 .418-.187.418-.417V37.55a.417.417 0 0 0-.418-.418zm-.417 2.928h-2.093v-2.093h2.093v2.093zm5.963-2.928h-2.928a.417.417 0 0 0-.418.418v2.928c0 .23.187.417.418.417h2.928c.23 0 .417-.187.417-.417V37.55a.417.417 0 0 0-.417-.418zm-.418 2.928H19.97v-2.093h2.093v2.093zm5.963-2.928h-2.928a.417.417 0 0 0-.417.418v2.928c0 .23.187.417.417.417h2.928c.231 0 .418-.187.418-.417V37.55a.417.417 0 0 0-.418-.418zm-.417 2.928h-2.093v-2.093h2.093v2.093zm5.963-2.928h-2.928a.417.417 0 0 0-.417.418v2.928c0 .23.187.417.417.417h2.928c.231 0 .418-.187.418-.417V37.55a.417.417 0 0 0-.418-.418zm-.417 2.928h-2.093v-2.093h2.093v2.093zm-16.22-7.849h-2.928a.417.417 0 0 0-.417.418v2.928c0 .23.187.417.417.417h2.928c.23 0 .418-.187.418-.417v-2.928a.417.417 0 0 0-.418-.418zm-.417 2.928h-2.093v-2.093h2.093v2.093zm5.963-2.928h-2.928a.417.417 0 0 0-.418.418v2.928c0 .23.187.417.418.417h2.928c.23 0 .417-.187.417-.417v-2.928a.417.417 0 0 0-.417-.418zm-.418 2.928H19.97v-2.093h2.093v2.093zm5.963-2.928h-2.928a.417.417 0 0 0-.417.418v2.928c0 .23.187.417.417.417h2.928c.231 0 .418-.187.418-.417v-2.928a.417.417 0 0 0-.418-.418zm-.417 2.928h-2.093v-2.093h2.093v2.093zm5.963-2.928h-2.928a.417.417 0 0 0-.417.418v2.928c0 .23.187.417.417.417h2.928c.231 0 .418-.187.418-.417v-2.928a.417.417 0 0 0-.418-.418zm-.417 2.928h-2.093v-2.093h2.093v2.093z" fill="#224189"/>
</svg>