<svg width="54" height="54" viewBox="0 0 54 54" fill="none" xmlns="http://www.w3.org/2000/svg">
    <path d="M36.388 14.002a9.388 9.388 0 1 1-18.776 0 9.388 9.388 0 0 1 18.776 0zm-3.165 0a6.223 6.223 0 1 0-12.446 0 6.223 6.223 0 0 0 12.446 0zM17.58 20.37a7.026 7.026 0 1 1-14.052 0 7.026 7.026 0 0 1 14.052 0zm-3.166 0a3.861 3.861 0 1 0-7.723 0 3.861 3.861 0 0 0 7.723 0zM50.472 20.37a7.026 7.026 0 1 1-14.052 0 7.026 7.026 0 0 1 14.052 0zm-3.163 0a3.862 3.862 0 1 0-7.725 0 3.862 3.862 0 0 0 7.725 0z" fill="#224189"/>
    <path d="M54 35.768v9.137c-.246 2.62-2.232 4.488-4.846 4.487a57520.59 57520.59 0 0 0-43.975 0c-.617.001-1.127-.045-1.53-.139C1.606 48.783.154 47 0 44.894v-9.146c.285-3.685 2.837-6.629 6.468-7.331.53-.102 1.215-.15 2.054-.144 1.473.012 2.982.014 4.528.006a8.984 8.984 0 0 1 2.171.265c.037.01.065-.003.082-.037 1.227-2.3 3.404-3.867 5.979-4.207.44-.058 1.129-.086 2.067-.083 2.987.01 5.79.013 8.41.01 2.91-.003 5.617 1.725 6.94 4.294a.061.061 0 0 0 .03.028.058.058 0 0 0 .04.003 8.172 8.172 0 0 1 2.121-.271c1.648-.001 3.325 0 5.033.002 2.203.002 4.062.715 5.577 2.14 1.506 1.416 2.339 3.198 2.5 5.345zm-17.72-4.763c-.574-2.178-2.426-3.618-4.694-3.617-3.098.002-6.111.002-9.04 0-1.591-.002-2.854.54-3.79 1.627a4.676 4.676 0 0 0-1.17 3.14c-.004 4.66-.005 9.33-.001 14.008 0 .04.02.06.06.06h18.713c.041 0 .061-.02.061-.061-.005-4.291-.004-8.72.003-13.288 0-.884-.046-1.507-.142-1.869zM4.223 33.217a4.72 4.72 0 0 0-1.058 2.976c0 2.715-.001 5.472-.004 8.27 0 .327.042.591.13.79.272.624.847.971 1.524.97l9.549.001c.037 0 .056-.018.056-.056v-14.5c0-.034-.016-.056-.049-.065a3.639 3.639 0 0 0-.976-.155c-1.82-.004-3.623-.003-5.406.005-1.553.007-2.808.595-3.766 1.764zm46.486 1.91c-.551-2.26-2.45-3.688-4.785-3.684-1.711.002-3.392.002-5.042 0-.437 0-.86.051-1.268.154-.023.005-.035.02-.035.044l.001 14.524c0 .04.02.06.06.06 3.044-.005 6.2-.004 9.467.002 1.067.002 1.74-.688 1.735-1.748a581.25 581.25 0 0 1 .005-7.63c.007-.747-.04-1.321-.138-1.722z" fill="#224189"/>
</svg>
